<svg width="28" height="26" viewBox="0 0 28 26" fill="none" xmlns="http://www.w3.org/2000/svg">
<g clip-path="url(#clip0_30_877)">
<path fill-rule="evenodd" clip-rule="evenodd" d="M20.7969 0.534882C21.0957 0.534877 21.3527 0.743686 21.4102 1.0332C21.9684 3.84172 24.2013 6.06652 26.9565 6.61349C27.2542 6.67258 27.4596 6.93141 27.4584 7.22029C27.4596 7.50916 27.2542 7.76799 26.9565 7.82708C24.2012 8.37405 21.9679 10.5989 21.4097 13.4074C21.3521 13.6969 21.0951 13.9058 20.7964 13.9058C20.4976 13.9058 20.2406 13.6969 20.1831 13.4074C19.6249 10.5988 17.392 8.37403 14.6368 7.82708C14.3392 7.76799 14.1337 7.50916 14.1349 7.22028C14.1337 6.93141 14.3392 6.67258 14.6368 6.61349C17.3921 6.06651 19.6255 3.84165 20.1836 1.03322C20.2411 0.743704 20.4981 0.534887 20.7969 0.534882ZM16.728 7.2203C18.5109 8.0497 19.9627 9.50314 20.7964 11.2948C21.6302 9.50311 23.0823 8.04967 24.8654 7.22027C23.0824 6.39088 21.6306 4.93747 20.7969 3.14579C19.9631 4.93752 18.511 6.39092 16.728 7.2203ZM9.67686 6.59114C9.97563 6.59114 10.2326 6.79995 10.2902 7.08947C11.0966 11.1467 14.3217 14.3635 18.3096 15.1551C18.6075 15.2143 18.813 15.4735 18.8115 15.7627C18.813 16.0518 18.6075 16.311 18.3096 16.3702C14.3217 17.1618 11.0958 20.3787 10.2894 24.436C10.2319 24.7255 9.9749 24.9343 9.67613 24.9343C9.37736 24.9343 9.12037 24.7255 9.06283 24.436C8.25642 20.3786 5.03135 17.1618 1.04348 16.3702C0.745585 16.311 0.54008 16.0518 0.541542 15.7627C0.540082 15.4735 0.745587 15.2143 1.04348 15.1551C5.03143 14.3635 8.25732 11.1467 9.06357 7.08949C9.1211 6.79997 9.37809 6.59115 9.67686 6.59114ZM3.30542 15.7627C6.18285 16.9275 8.50379 19.251 9.67616 22.1473C10.8487 19.2509 13.1701 16.9274 16.0477 15.7627C13.1702 14.5979 10.8493 12.2744 9.67687 9.37815C8.50439 12.2745 6.18298 14.598 3.30542 15.7627Z" fill="#0077C8"/>
</g>
<defs>
<clipPath id="clip0_30_877">
<rect width="28" height="25.675" fill="white"/>
</clipPath>
</defs>
</svg>
